<svg xmlns="http://www.w3.org/2000/svg" width="64" height="64" viewBox="0 0 64 64">
  <defs>
    <linearGradient id="n" x1="12" y1="10" x2="52" y2="54" gradientUnits="userSpaceOnUse">
      <stop stop-color="#a5f3fc"/>
      <stop offset="0.5" stop-color="#22d3ee"/>
      <stop offset="1" stop-color="#0891b2"/>
    </linearGradient>
  </defs>
  <rect width="64" height="64" rx="14" fill="#0a0e1a"/>
  <g stroke="#22d3ee" stroke-opacity="0.5" stroke-width="1.4" stroke-linecap="round">
    <line x1="20" y1="22" x2="32" y2="14"/><line x1="32" y1="14" x2="45" y2="22"/>
    <line x1="20" y1="22" x2="31" y2="31"/><line x1="32" y1="14" x2="31" y2="31"/>
    <line x1="45" y1="22" x2="48" y2="37"/><line x1="15" y1="36" x2="31" y2="31"/>
    <line x1="31" y1="31" x2="48" y2="37"/><line x1="15" y1="36" x2="24" y2="48"/>
    <line x1="31" y1="31" x2="24" y2="48"/><line x1="31" y1="31" x2="40" y2="48"/>
    <line x1="48" y1="37" x2="40" y2="48"/><line x1="24" y1="48" x2="40" y2="48"/>
    <line x1="20" y1="22" x2="15" y2="36"/>
  </g>
  <circle cx="31" cy="31" r="8" fill="#22d3ee" opacity="0.16"/>
  <g fill="url(#n)">
    <circle cx="20" cy="22" r="2.6"/><circle cx="32" cy="14" r="3"/><circle cx="45" cy="22" r="2.6"/>
    <circle cx="15" cy="36" r="2.2"/><circle cx="31" cy="31" r="4"/><circle cx="48" cy="37" r="2.8"/>
    <circle cx="24" cy="48" r="2.6"/><circle cx="40" cy="48" r="2.2"/>
  </g>
</svg>
